#!OML:ASF I:\golf\golf\golf 2\Subject 1\2002-09-07\Subject1.ASF
:FULLY-SPECIFIED
:DEGREES
202
root 1.7072 14.7395 -3.15481 21.0701 -1.41802 -1.40331
lowerback 29.3496 7.27827 -1.97626
upperback 15.982 8.69362 5.98578
thorax 0.821633 3.86564 5.25546
lowerneck -14.6188 -4.38577 -4.5949
upperneck 26.532 -1.74184 -10.7837
head 11.0248 -2.41795 -3.36392
rclavicle 3.97569e-014 -1.59028e-014
rhumerus 26.2384 5.46655 -71.1989
rradius 26.9734
rwrist -11.8181
rhand -40.161 23.1946
rfingers 7.12502
rthumb -13.123 -6.37248
lclavicle 3.97569e-014 -1.59028e-014
lhumerus -24.8892 -38.931 96.5022
lradius 83.7283
lwrist -12.523
lhand -38.795 29.6483
lfingers 7.12502
lthumb -11.8059 59.2955
rfemur -75.6859 -33.4595 38.0918
rtibia 93.1493
rfoot -22.3026 -3.66722
rtoes -13.1223
lfemur -76.1352 10.008 -21.8813
ltibia 76.7303
lfoot -21.7321 -14.691
ltoes -4.63683
203
root 1.73215 14.636 -3.13573 20.9476 -1.57732 -1.35063
lowerback 29.5445 7.27565 -1.81846
upperback 16.1828 8.70989 6.00297
thorax 0.986766 3.87364 5.18323
lowerneck -14.7244 -4.44251 -4.68426
upperneck 26.3575 -1.78957 -10.8453
head 10.9811 -2.45203 -3.37325
rclavicle -1.43125e-014 1.11319e-014
rhumerus 26.8008 5.27101 -71.1607
rradius 26.6666
rwrist -11.9583
rhand -40.5007 23.5311
rfingers 7.12502
rthumb -13.4504 -6.01466
lclavicle -1.43125e-014 1.11319e-014
lhumerus -24.7062 -38.5668 96.4358
lradius 84.0053
lwrist -13.0561
lhand -38.8808 30.1564
lfingers 7.12502
lthumb -11.8887 59.7988
rfemur -76.2369 -33.8185 37.8734
rtibia 94.343
rfoot -22.5205 -3.23181
rtoes -13.5441
lfemur -76.7355 10.1314 -22.1008
ltibia 78.0365
lfoot -22.1033 -14.7702
ltoes -4.08966
204
root 1.75582 14.5347 -3.11815 20.7827 -1.66029 -1.38547
lowerback 29.8273 7.24256 -1.61472
upperback 16.3505 8.70286 6.09002
thorax 1.07364 3.87089 5.15937
lowerneck -14.803 -4.46849 -4.87266
upperneck 26.2764 -1.76979 -10.8695
head 10.9739 -2.46306 -3.34735
rclavicle -2.06736e-014 4.69132e-014
rhumerus 27.2997 5.00272 -71.21
rradius 26.4679
rwrist -12.0044
rhand -40.3604 23.3096
rfingers 7.12502
rthumb -13.3152 -6.24497
lclavicle -2.06736e-014 4.69132e-014
lhumerus -24.6952 -38.0338 96.4814
lradius 84.487
lwrist -13.3364
lhand -39.054 28.9658
lfingers 7.12502
lthumb -12.0557 58.5985
rfemur -76.7456 -34.2584 37.8183
rtibia 95.5123
rfoot -22.7024 -2.86686
rtoes -13.987
lfemur -77.2891 10.212 -22.186
ltibia 79.3331
lfoot -22.5014 -14.6885
ltoes -3.94143
205
root 1.77636 14.4318 -3.09938 20.5884 -1.7593 -1.42536
lowerback 30.1393 7.2689 -1.55286
upperback 16.5084 8.74062 6.26279
thorax 1.10084 3.87811 5.29156
lowerneck -14.899 -4.50322 -5.06665
upperneck 26.2807 -1.719 -11.0045
head 11.0042 -2.47593 -3.36212
rclavicle 1.74931e-014 1.74931e-014
rhumerus 27.7345 4.88325 -71.08
rradius 26.2508
rwrist -12.0321
rhand -40.2176 23.2929
rfingers 7.12502
rthumb -13.1776 -6.27067
lclavicle 1.74931e-014 1.74931e-014
lhumerus -24.8693 -37.3772 96.6288
lradius 85.083
lwrist -13.9871
lhand -38.7555 28.2052
lfingers 7.12502
lthumb -11.7679 57.8546
rfemur -77.2429 -34.7455 37.8256
rtibia 96.6802
rfoot -22.9612 -2.46257
rtoes -13.788
lfemur -77.7861 10.2959 -22.245
ltibia 80.6257
lfoot -23.1038 -14.381
ltoes -4.77251
206
root 1.7976 14.318 -3.07331 20.493 -1.93559 -1.5247
lowerback 30.2355 7.32278 -1.50503
upperback 16.6637 8.8114 6.43809
thorax 1.21274 3.90035 5.44239
lowerneck -14.9439 -4.54467 -5.28863
upperneck 26.2414 -1.6784 -11.1418
head 11.0084 -2.49357 -3.37062
rclavicle 1.59028e-014 4.37326e-014
rhumerus 28.1553 5.16846 -70.6128
rradius 26.0031
rwrist -12.2917
rhand -40.4013 23.3299
rfingers 7.12502
rthumb -13.3546 -6.22217
lclavicle 1.59028e-014 4.37326e-014
lhumerus -25.044 -36.807 96.776
lradius 85.5013
lwrist -14.9569
lhand -40.2178 25.9242
lfingers 7.12502
lthumb -13.1777 55.4877
rfemur -77.9071 -35.158 37.9956
rtibia 97.8925
rfoot -23.2918 -2.23638
rtoes -14.1048
lfemur -78.4367 10.5346 -22.3257
ltibia 81.9649
lfoot -23.6953 -14.2071
ltoes -5.42986
207
root 1.8209 14.2064 -3.04205 20.4339 -2.21261 -1.59005
lowerback 30.2741 7.44123 -1.26215
upperback 16.7236 9.00304 6.41879
thorax 1.28094 4.00776 5.22858
lowerneck -14.7651 -4.66789 -5.14762
upperneck 26.2578 -1.88503 -11.2078
head 10.9644 -2.57408 -3.43921
rclavicle -9.54166e-015 -3.49861e-014
rhumerus 28.3122 4.72624 -70.6826
rradius 25.6515
rwrist -12.053
rhand -40.8794 23.6072
rfingers 7.12502
rthumb -13.8154 -5.91402
lclavicle -9.54166e-015 -3.49861e-014
lhumerus -25.3327 -36.8302 96.7678
lradius 85.9646
lwrist -15.4136
lhand -39.5002 28.8654
lfingers 7.12502
lthumb -12.4859 58.4724
rfemur -78.6055 -35.5547 38.1696
rtibia 99.095
rfoot -23.6367 -2.14155
rtoes -15.1927
lfemur -79.0899 10.8346 -22.4678
ltibia 83.3136
lfoot -24.1876 -14.2005
ltoes -5.36771
208
root 1.84286 14.0998 -3.01576 20.2534 -2.39413 -1.49764
lowerback 30.5216 7.53501 -1.05524
upperback 16.7965 9.15483 6.39018
thorax 1.27803 4.09422 5.02047
lowerneck -14.6248 -4.84438 -5.0052
upperneck 26.3089 -2.16208 -11.2604
head 10.9375 -2.68631 -3.51495
rclavicle 1.49486e-013 -2.14687e-014
rhumerus 28.5146 3.68188 -71.1961
rradius 25.2718
rwrist -11.2082
rhand -41.2018 24.1986
rfingers 7.12502
rthumb -14.1261 -5.30125
lclavicle 1.49486e-013 -2.14687e-014
lhumerus -25.6237 -36.8581 96.7714
lradius 86.5219
lwrist -15.5351
lhand -39.6175 28.8214
lfingers 7.12502
lthumb -12.599 58.4215
rfemur -79.1662 -36.1469 38.1513
rtibia 100.263
rfoot -24.036 -1.90203
rtoes -15.732
lfemur -79.5595 10.9409 -22.6838
ltibia 84.6225
lfoot -24.7721 -14.067
ltoes -5.60194
